<svg xmlns="http://www.w3.org/2000/svg" xmlns:xlink="http://www.w3.org/1999/xlink" viewBox="0 0 464.48 464.48"><defs><style>.cls-1{fill:#0a0a0a;}.cls-2{fill:#1574ad;}.cls-3{fill:url(#linear-gradient);}.cls-4{fill:#3ec745;}.cls-5{fill:url(#linear-gradient-2);}.cls-6{fill:url(#linear-gradient-3);}.cls-7{fill:url(#linear-gradient-4);}.cls-8{fill:url(#linear-gradient-5);}.cls-9{fill:#34af3a;}</style><linearGradient id="linear-gradient" x1="316.67" y1="168.87" x2="214.99" y2="168.87" gradientTransform="matrix(1, 0, 0, -1, 0, 466.49)" gradientUnits="userSpaceOnUse"><stop offset="0" stop-opacity="0.3"/><stop offset="1" stop-color="#1574ad"/></linearGradient><linearGradient id="linear-gradient-2" x1="117.68" y1="106.76" x2="117.68" y2="166.01" gradientTransform="matrix(1, 0, 0, -1, 0, 466.49)" gradientUnits="userSpaceOnUse"><stop offset="0" stop-opacity="0.3"/><stop offset="0.07" stop-color="#071808" stop-opacity="0.35"/><stop offset="0.25" stop-color="#184d1b" stop-opacity="0.47"/><stop offset="0.42" stop-color="#26792a" stop-opacity="0.59"/><stop offset="0.58" stop-color="#309b36" stop-opacity="0.71"/><stop offset="0.74" stop-color="#38b33e" stop-opacity="0.82"/><stop offset="0.88" stop-color="#3cc243" stop-opacity="0.92"/><stop offset="1" stop-color="#3ec745"/></linearGradient><linearGradient id="linear-gradient-3" x1="245.37" y1="64.95" x2="245.37" y2="166.01" gradientTransform="matrix(1, 0, 0, -1, 0, 466.49)" gradientUnits="userSpaceOnUse"><stop offset="0" stop-opacity="0.3"/><stop offset="0.23" stop-color="#123914" stop-opacity="0.46"/><stop offset="0.49" stop-color="#257529" stop-opacity="0.65"/><stop offset="0.72" stop-color="#32a238" stop-opacity="0.8"/><stop offset="0.9" stop-color="#3bbd41" stop-opacity="0.93"/><stop offset="1" stop-color="#3ec745"/></linearGradient><linearGradient id="linear-gradient-4" x1="222.22" y1="237.24" x2="147.2" y2="237.24" gradientTransform="matrix(1, 0, 0, -1, 0, 466.49)" gradientUnits="userSpaceOnUse"><stop offset="0" stop-color="#3ec745"/><stop offset="0.06" stop-color="#3ab940" stop-opacity="0.92"/><stop offset="0.16" stop-color="#2f9534" stop-opacity="0.78"/><stop offset="0.3" stop-color="#1c5b20" stop-opacity="0.58"/><stop offset="0.48" stop-color="#040b04" stop-opacity="0.33"/><stop offset="0.5" stop-opacity="0.3"/><stop offset="0.61" stop-color="#123914" stop-opacity="0.46"/><stop offset="0.75" stop-color="#257529" stop-opacity="0.65"/><stop offset="0.86" stop-color="#32a238" stop-opacity="0.8"/><stop offset="0.95" stop-color="#3bbd41" stop-opacity="0.93"/><stop offset="1" stop-color="#3ec745"/></linearGradient><linearGradient id="linear-gradient-5" x1="192.67" y1="181.44" x2="192.67" y2="273.13" gradientTransform="matrix(1, 0, 0, -1, 0, 466.49)" gradientUnits="userSpaceOnUse"><stop offset="0" stop-opacity="0.3"/><stop offset="0.18" stop-color="#062233" stop-opacity="0.43"/><stop offset="0.37" stop-color="#0b3f5f" stop-opacity="0.56"/><stop offset="0.55" stop-color="#105681" stop-opacity="0.68"/><stop offset="0.72" stop-color="#136799" stop-opacity="0.8"/><stop offset="0.87" stop-color="#1471a8" stop-opacity="0.91"/><stop offset="1" stop-color="#1574ad"/></linearGradient></defs><g id="Layer_2" data-name="Layer 2"><g id="Layer_1-2" data-name="Layer 1"><path class="cls-1" d="M88,239.79v3.78l.14-7.09C88,237.58,88,238.61,88,239.79Z"/><path class="cls-2" d="M359,161.8l.14,7.1V295.45a31.48,31.48,0,0,1-31.49,31.48H284V285.05h15.77a16.77,16.77,0,0,0,16.81-16.74V192.25a16.79,16.79,0,0,0-16.81-16.81h-77.5a16.79,16.79,0,0,0-16.81,16.81v76.06a16.77,16.77,0,0,0,16.81,16.74h19.36v41.88H194.53a31.47,31.47,0,0,1-31.48-31.48V165.11a31.47,31.47,0,0,1,31.48-31.48H311.16l48.22-70.75Z"/><path class="cls-3" d="M299.93,285.05H215v41.88h76.95a24.75,24.75,0,0,0,24.73-24.73V268.31A16.76,16.76,0,0,1,299.93,285.05Z"/><path class="cls-4" d="M252.6,208.3H205.48v41.89h19.36a16.77,16.77,0,0,1,16.81,16.74v76a16.79,16.79,0,0,1-16.81,16.81H147.2a16.79,16.79,0,0,1-16.81-16.81v-76a16.77,16.77,0,0,1,16.81-16.74H163V208.3H136L87.75,137.55l.35,98.93L88,243.57V370.12a31.48,31.48,0,0,0,31.48,31.49H252.67a31.48,31.48,0,0,0,31.48-31.49V239.79A31.53,31.53,0,0,0,252.6,208.3Z"/><path class="cls-5" d="M130.39,342.91V300.48H88.17v26.59a32.63,32.63,0,0,0,32.65,32.65H147.2A16.83,16.83,0,0,1,130.39,342.91Z"/><path class="cls-6" d="M284.09,370.12V300.48H241.65v39.13s5.37,61.93-35,61.93h46A31.41,31.41,0,0,0,284.09,370.12Z"/><rect class="cls-7" x="147.2" y="208.3" width="75.02" height="41.88"/><rect class="cls-2" x="163.05" y="208.3" width="42.44" height="41.88"/><path class="cls-8" d="M205.48,268.24V193.35H163.05v62.83a28.91,28.91,0,0,0,28.86,28.87h30.38A16.79,16.79,0,0,1,205.48,268.24Z"/><path class="cls-9" d="M232.24,464.48A232.24,232.24,0,0,1,68,68,232.24,232.24,0,0,1,396.46,396.46,230.68,230.68,0,0,1,232.24,464.48Zm0-448.48C113,16,16,113,16,232.24s97,216.24,216.24,216.24,216.24-97,216.24-216.24S351.48,16,232.24,16Z"/></g></g></svg>